<svg xmlns="http://www.w3.org/2000/svg" xmlns:xlink="http://www.w3.org/1999/xlink" width="1000" height="200" preserveAspectRatio="xMidYMid meet" version="1.0" viewBox="0 0 750 150" zoomAndPan="magnify"><rect width="900" height="180" x="-75" y="-15" fill="#fff" fill-opacity="1"/><rect width="900" height="180" x="-75" y="-15" fill="#fff" fill-opacity="1"/><rect width="900" height="180" x="-75" y="-15" fill="#fff" fill-opacity="1"/><rect width="900" height="180" x="-75" y="-15" fill="#fff" fill-opacity="1"/><g fill="#fff" fill-opacity="1"><g><g><path d="M 21.316406 0 C 22.796875 0 23.5625 -0.765625 23.5625 -2.246094 L 23.5625 -46.910156 L 47.457031 -15.835938 C 48.445312 -14.523438 49.648438 -14.523438 50.636719 -15.835938 L 74.636719 -47.019531 L 74.636719 -2.246094 C 74.636719 -0.765625 75.40625 0 76.886719 0 L 87.515625 0 C 88.996094 0 89.761719 -0.765625 89.761719 -2.246094 L 89.761719 -82.363281 C 89.761719 -86.585938 86.804688 -87.515625 84.28125 -84.171875 L 49.046875 -37.59375 L 13.917969 -84.171875 C 11.34375 -87.570312 8.4375 -86.585938 8.4375 -82.363281 L 8.4375 -2.246094 C 8.4375 -0.765625 9.207031 0 10.6875 0 Z M 21.316406 0" transform="translate(151.995117, 117.109256)"/></g></g></g><g fill="#fff" fill-opacity="1"><g><g><path d="M 35.894531 1.261719 C 53.703125 1.261719 67.128906 -11.234375 67.128906 -28.988281 C 67.128906 -46.800781 53.703125 -59.238281 35.894531 -59.238281 C 18.25 -59.238281 4.824219 -46.800781 4.824219 -28.988281 C 4.824219 -11.234375 18.25 1.261719 35.894531 1.261719 Z M 35.894531 -11.398438 C 26.085938 -11.398438 18.90625 -18.742188 18.90625 -28.988281 C 18.90625 -39.292969 26.085938 -46.636719 35.894531 -46.636719 C 45.921875 -46.636719 53.046875 -39.292969 53.046875 -28.988281 C 53.046875 -18.742188 45.921875 -11.398438 35.894531 -11.398438 Z M 35.894531 -11.398438" transform="translate(247.389398, 117.109256)"/></g></g></g><g fill="#fff" fill-opacity="1"><g><g><path d="M 28.441406 0.0546875 C 30.085938 3.453125 32.933594 3.398438 34.523438 0 L 60.117188 -55.402344 C 60.828125 -56.9375 60.117188 -58.035156 58.417969 -58.035156 L 48.332031 -58.035156 C 47.074219 -58.035156 46.25 -57.59375 45.757812 -56.335938 L 31.511719 -20.824219 L 16.933594 -56.335938 C 16.441406 -57.539062 15.5625 -58.035156 14.304688 -58.035156 L 4.328125 -58.035156 C 2.628906 -58.035156 1.972656 -56.9375 2.683594 -55.402344 Z M 28.441406 0.0546875" transform="translate(316.589675, 117.109256)"/></g></g></g><g fill="#fff" fill-opacity="1"><g><g><path d="M 14.523438 -63.625 C 19.453125 -63.625 23.125 -67.351562 23.125 -72.28125 C 23.125 -77.160156 19.453125 -80.996094 14.523438 -80.996094 C 9.589844 -80.996094 5.863281 -77.160156 5.863281 -72.28125 C 5.863281 -67.351562 9.589844 -63.625 14.523438 -63.625 Z M 19.398438 0 C 20.878906 0 21.644531 -0.765625 21.644531 -2.246094 L 21.644531 -55.785156 C 21.644531 -57.210938 20.878906 -58.035156 19.398438 -58.035156 L 9.753906 -58.035156 C 8.328125 -58.035156 7.507812 -57.210938 7.507812 -55.785156 L 7.507812 -2.246094 C 7.507812 -0.765625 8.328125 0 9.753906 0 Z M 19.398438 0" transform="translate(376.63849, 117.109256)"/></g></g></g><g fill="#fff" fill-opacity="1"><g><g><path d="M 34.03125 -59.238281 C 17.480469 -59.238281 4.988281 -47.347656 4.988281 -28.988281 C 4.988281 -10.410156 18.359375 1.261719 34.632812 1.261719 C 43.457031 1.261719 52.058594 -2.464844 58.527344 -9.261719 C 59.675781 -10.410156 59.675781 -11.507812 58.582031 -12.332031 L 53.210938 -18.25 C 52.171875 -19.070312 51.347656 -19.015625 50.308594 -18.03125 C 45.976562 -13.589844 40.386719 -11.234375 35.015625 -11.234375 C 26.578125 -11.234375 19.179688 -16.878906 18.796875 -27.015625 L 60.0625 -27.015625 C 61.652344 -27.015625 62.472656 -27.566406 62.472656 -29.539062 C 62.472656 -47.347656 50.582031 -59.238281 34.03125 -59.238281 Z M 34.304688 -47.566406 C 40.277344 -47.566406 46.085938 -44.332031 47.785156 -36.933594 L 19.78125 -36.933594 C 21.867188 -44.386719 28.496094 -47.566406 34.304688 -47.566406 Z M 34.304688 -47.566406" transform="translate(403.095414, 117.109256)"/></g></g></g><g fill="#ff1616" fill-opacity="1"><g><g><path d="M 37.484375 -84.449219 C 34.742188 -85.160156 32.222656 -85.433594 29.867188 -85.433594 C 17.972656 -85.433594 10.191406 -79.078125 10.191406 -65.761719 L 10.191406 -58.035156 L 6.519531 -58.035156 C 5.042969 -58.035156 4.273438 -57.210938 4.273438 -55.785156 L 4.273438 -48.773438 C 4.273438 -47.292969 5.042969 -46.527344 6.519531 -46.527344 L 10.191406 -46.527344 L 10.191406 -2.246094 C 10.191406 -0.765625 11.015625 0 12.441406 0 L 22.085938 0 C 23.5625 0 24.332031 -0.765625 24.332031 -2.246094 L 24.332031 -46.527344 L 32.386719 -46.527344 C 33.8125 -46.527344 34.632812 -47.292969 34.632812 -48.773438 L 34.632812 -55.785156 C 34.632812 -57.210938 33.8125 -58.035156 32.386719 -58.035156 L 24.332031 -58.035156 L 24.332031 -66.910156 C 24.332031 -71.898438 27.070312 -74.089844 31.125 -74.089844 C 32.222656 -74.089844 33.484375 -73.925781 34.851562 -73.488281 C 36.167969 -73.160156 37.101562 -73.707031 37.484375 -75.078125 L 38.964844 -81.652344 C 39.292969 -83.078125 38.851562 -84.007812 37.484375 -84.449219 Z M 37.484375 -84.449219" transform="translate(467.51694, 117.109256)"/></g></g></g><g fill="#ff1616" fill-opacity="1"><g><g><path d="M 25.316406 1.261719 C 28.058594 1.261719 31.015625 1.097656 34.195312 0 C 35.511719 -0.492188 36.003906 -1.589844 35.566406 -2.90625 L 33.648438 -9.808594 C 33.210938 -11.179688 32.277344 -11.671875 30.796875 -11.234375 C 29.429688 -10.796875 28.058594 -10.632812 27.015625 -10.632812 C 23.453125 -10.632812 21.207031 -12.605469 21.207031 -17.261719 L 21.207031 -81.925781 C 21.207031 -83.40625 20.441406 -84.171875 18.960938 -84.171875 L 9.316406 -84.171875 C 7.835938 -84.171875 7.070312 -83.40625 7.070312 -81.925781 L 7.070312 -15.617188 C 7.070312 -4.65625 14.578125 1.261719 25.316406 1.261719 Z M 25.316406 1.261719" transform="translate(502.686936, 117.109256)"/></g></g></g><g fill="#ff1616" fill-opacity="1"><g><g><path d="M 14.523438 -63.625 C 19.453125 -63.625 23.125 -67.351562 23.125 -72.28125 C 23.125 -77.160156 19.453125 -80.996094 14.523438 -80.996094 C 9.589844 -80.996094 5.863281 -77.160156 5.863281 -72.28125 C 5.863281 -67.351562 9.589844 -63.625 14.523438 -63.625 Z M 19.398438 0 C 20.878906 0 21.644531 -0.765625 21.644531 -2.246094 L 21.644531 -55.785156 C 21.644531 -57.210938 20.878906 -58.035156 19.398438 -58.035156 L 9.753906 -58.035156 C 8.328125 -58.035156 7.507812 -57.210938 7.507812 -55.785156 L 7.507812 -2.246094 C 7.507812 -0.765625 8.328125 0 9.753906 0 Z M 19.398438 0" transform="translate(538.185726, 117.109256)"/></g></g></g><g fill="#ff1616" fill-opacity="1"><g><g><path d="M 17.152344 0 C 18.359375 0 19.234375 -0.546875 19.835938 -1.480469 L 33.320312 -20.496094 L 46.800781 -1.480469 C 47.457031 -0.4375 48.332031 0 49.484375 0 L 61.816406 0 C 63.679688 0 64.390625 -1.207031 63.183594 -2.683594 L 42.414062 -29.703125 L 62.199219 -55.347656 C 63.347656 -56.828125 62.691406 -58.035156 60.828125 -58.035156 L 49.15625 -58.035156 C 48.058594 -58.035156 47.128906 -57.59375 46.472656 -56.609375 L 33.320312 -38.6875 L 20.277344 -56.609375 C 19.5625 -57.59375 18.6875 -58.035156 17.589844 -58.035156 L 5.808594 -58.035156 C 4 -58.035156 3.289062 -56.882812 4.492188 -55.347656 L 24.277344 -29.703125 L 3.5625 -2.683594 C 2.355469 -1.207031 3.015625 0 4.878906 0 Z M 17.152344 0" transform="translate(564.642658, 117.109256)"/></g></g></g></svg>