<svg xmlns="http://www.w3.org/2000/svg" xmlns:xlink="http://www.w3.org/1999/xlink" width="500" height="500" preserveAspectRatio="xMidYMid meet" version="1.0" viewBox="0 0 375 375" zoomAndPan="magnify"><defs><clipPath id="id1"><path d="M 59.484375 23.222656 L 307.734375 23.222656 L 307.734375 264.722656 L 59.484375 264.722656 Z M 59.484375 23.222656" clip-rule="nonzero"/></clipPath></defs><rect width="450" height="450" x="-37.5" y="-37.5" fill="#fff" fill-opacity="1"/><rect width="450" height="450" x="-37.5" y="-37.5" fill="#16191c" fill-opacity="1"/><rect width="450" height="450" x="-37.5" y="-37.5" fill="#fff" fill-opacity="1"/><rect width="450" height="450" x="-37.5" y="-37.5" fill="#16191c" fill-opacity="1"/><g clip-path="url(#id1)"><path fill="#fff" fill-opacity="1" fill-rule="nonzero" d="M 66.335938 264.695312 C 62.648438 264.695312 59.660156 261.707031 59.660156 258.019531 L 59.660156 132.726562 C 59.660156 72.332031 108.777344 23.199219 169.152344 23.199219 C 198.40625 23.199219 225.902344 34.589844 246.582031 55.277344 C 267.261719 75.960938 278.648438 103.46875 278.648438 132.726562 L 278.648438 164.386719 L 300.546875 164.386719 C 302.734375 164.386719 304.785156 165.460938 306.035156 167.257812 C 307.28125 169.058594 307.566406 171.359375 306.796875 173.410156 L 278.648438 248.480469 L 278.648438 258.019531 C 278.648438 261.707031 275.660156 264.695312 271.972656 264.695312 Z M 66.335938 264.695312"/></g><path fill="#f66" fill-opacity="1" fill-rule="nonzero" d="M 272.28125 132.726562 L 272.28125 258.019531 L 268.128906 258.019531 L 232.921875 246.0625 L 83.445312 249.589844 L 67.515625 258.019531 L 66.648438 258.019531 L 66.648438 132.726562 C 66.648438 75.925781 112.679688 29.878906 169.464844 29.878906 C 197.863281 29.878906 223.566406 41.386719 242.171875 60 C 260.777344 78.609375 272.28125 104.320312 272.28125 132.726562 Z M 272.28125 132.726562"/><path fill="#00dfff" fill-opacity="1" fill-rule="nonzero" d="M 215.976562 202.585938 C 215.542969 220.664062 214.636719 239.152344 214.058594 249.851562 C 213.847656 253.722656 155.164062 258.019531 155.164062 258.019531 L 139.230469 258.019531 L 126.796875 247.820312 L 69.328125 258.019531 C 69.441406 249.949219 70.320312 198.144531 75.726562 173.066406 C 81.601562 145.820312 130.472656 130.589844 130.472656 130.589844 C 130.472656 130.589844 147.300781 131.394531 162.253906 134.0625 C 169.433594 135.34375 179.8125 138.472656 189.429688 141.855469 C 197.941406 144.851562 205.851562 148.035156 210.4375 150.304688 C 210.535156 150.359375 210.625 150.402344 210.714844 150.449219 C 211.625 150.90625 212.394531 151.328125 212.996094 151.695312 C 216.277344 153.710938 216.578125 177.765625 215.976562 202.585938 Z M 215.976562 202.585938"/><path fill="#ffb4b2" fill-opacity="1" fill-rule="nonzero" d="M 164.65625 97.730469 L 164.414062 101.382812 L 162.488281 130.5 L 162.253906 134.0625 L 130.472656 130.589844 L 131.207031 92.488281 L 130.207031 92.121094 Z M 164.65625 97.730469"/><path fill="#4e1649" fill-opacity="1" fill-rule="nonzero" d="M 164.414062 101.382812 L 162.488281 130.5 C 157.492188 129.621094 152.875 127.027344 149.113281 123.65625 C 143.027344 118.203125 137.074219 108.25 145.863281 102.117188 C 150.769531 98.699219 158.292969 98.835938 164.414062 101.382812 Z M 164.414062 101.382812"/><path fill="#ffb4b2" fill-opacity="1" fill-rule="nonzero" d="M 183.296875 69.632812 C 179.289062 58.40625 168.359375 50.714844 156.445312 50.714844 C 140.699219 50.714844 127.9375 63.484375 127.9375 79.234375 C 127.9375 81.171875 128.140625 83.058594 128.511719 84.890625 C 128.375 84.894531 128.238281 84.878906 128.105469 84.886719 C 125.078125 85.082031 122.195312 86.832031 120.621094 89.425781 C 119.050781 92.019531 118.835938 95.386719 120.0625 98.160156 C 122.042969 102.640625 127.027344 104.816406 131.824219 106.058594 L 132.011719 110.242188 C 132.207031 114.472656 135.332031 117.992188 139.511719 118.675781 L 170.351562 123.730469 C 175.394531 124.558594 180.105469 121 180.695312 115.925781 C 182.097656 103.839844 184.648438 91.40625 184.769531 79.230469 C 184.800781 76.027344 184.445312 72.839844 183.296875 69.632812 Z M 183.296875 69.632812"/><path fill="#4e1649" fill-opacity="1" fill-rule="nonzero" d="M 133.625 99.507812 C 133.511719 99.507812 133.40625 99.4375 133.367188 99.324219 C 131.457031 94.15625 126.742188 90.0625 121.355469 88.902344 C 121.203125 88.871094 121.109375 88.722656 121.140625 88.574219 C 121.171875 88.421875 121.320312 88.332031 121.472656 88.359375 C 127.039062 89.558594 131.914062 93.789062 133.886719 99.132812 C 133.941406 99.277344 133.867188 99.4375 133.722656 99.492188 C 133.691406 99.503906 133.660156 99.507812 133.625 99.507812 Z M 133.625 99.507812"/><path fill="#4e1649" fill-opacity="1" fill-rule="nonzero" d="M 152.609375 83.351562 C 152.992188 83.886719 153.695312 84.070312 154.34375 84.167969 C 156.992188 84.5625 164.851562 84.0625 162.949219 79.6875 C 161.648438 76.695312 157.792969 77.667969 155.496094 78.804688 C 154.183594 79.457031 151.347656 81.585938 152.609375 83.351562 Z M 152.609375 83.351562"/><path fill="#4e1649" fill-opacity="1" fill-rule="nonzero" d="M 184.605469 82.109375 C 184.3125 82.628906 183.695312 82.867188 183.117188 83.019531 C 180.761719 83.640625 173.605469 83.964844 174.894531 79.820312 C 175.773438 76.984375 179.355469 77.480469 181.542969 78.28125 C 182.796875 78.742188 185.574219 80.386719 184.605469 82.109375 Z M 184.605469 82.109375"/><path fill="#4e1649" fill-opacity="1" fill-rule="nonzero" d="M 162.800781 89.878906 C 162.792969 91.394531 161.558594 92.617188 160.042969 92.609375 C 158.53125 92.605469 157.308594 91.371094 157.3125 89.855469 C 157.320312 88.339844 158.554688 87.117188 160.070312 87.121094 C 161.582031 87.128906 162.804688 88.363281 162.800781 89.878906 Z M 162.800781 89.878906"/><path fill="#4e1649" fill-opacity="1" fill-rule="nonzero" d="M 181.761719 89.921875 C 181.753906 91.386719 180.5625 92.570312 179.097656 92.5625 C 177.628906 92.558594 176.449219 91.363281 176.453125 89.898438 C 176.460938 88.433594 177.65625 87.25 179.121094 87.257812 C 180.585938 87.261719 181.765625 88.457031 181.761719 89.921875 Z M 181.761719 89.921875"/><path fill="#4e1649" fill-opacity="1" fill-rule="nonzero" d="M 171.398438 102.558594 C 169.824219 102.5625 168.046875 101.738281 167.945312 101.691406 C 167.804688 101.625 167.746094 101.460938 167.8125 101.320312 C 167.875 101.183594 168.042969 101.121094 168.179688 101.1875 C 168.210938 101.203125 171.261719 102.609375 172.617188 101.707031 C 173.457031 101.148438 172.503906 93.773438 171.097656 86.96875 C 171.066406 86.820312 171.160156 86.671875 171.3125 86.640625 C 171.460938 86.609375 171.609375 86.707031 171.640625 86.855469 C 172.132812 89.230469 174.503906 101.117188 172.925781 102.171875 C 172.5 102.457031 171.960938 102.558594 171.398438 102.558594 Z M 171.398438 102.558594"/><path fill="#4e1649" fill-opacity="1" fill-rule="nonzero" d="M 169.339844 106.816406 C 168.984375 106.816406 168.613281 106.789062 168.21875 106.722656 C 164.484375 106.097656 163.433594 102.859375 163.390625 102.722656 C 163.34375 102.578125 163.425781 102.421875 163.574219 102.375 C 163.71875 102.332031 163.875 102.410156 163.921875 102.558594 C 163.960938 102.679688 164.921875 105.609375 168.308594 106.171875 C 171.691406 106.738281 173.375 104.386719 173.445312 104.285156 C 173.53125 104.160156 173.707031 104.128906 173.832031 104.214844 C 173.957031 104.304688 173.988281 104.476562 173.898438 104.601562 C 173.832031 104.703125 172.328125 106.816406 169.339844 106.816406 Z M 169.339844 106.816406"/><path fill="#4e1649" fill-opacity="1" fill-rule="nonzero" d="M 128.511719 84.890625 C 128.511719 84.890625 134.214844 85.308594 136.214844 91.453125 C 138.21875 97.597656 138.484375 98 138.484375 98 C 138.484375 98 142.226562 94.527344 140.621094 89.585938 C 139.019531 84.640625 138.621094 83.839844 138.621094 83.839844 C 138.621094 83.839844 143.695312 85.308594 147.03125 79.832031 C 150.371094 74.355469 147.164062 68.613281 147.164062 68.613281 C 147.164062 68.613281 154.910156 69.550781 157.046875 64.207031 C 159.183594 58.863281 134.746094 49.648438 127.671875 54.054688 C 120.59375 58.460938 115.652344 66.878906 117.253906 76.496094 C 118.859375 86.113281 120.59375 89.851562 120.59375 89.851562 C 120.59375 89.851562 122.273438 85.40625 128.511719 84.890625 Z M 128.511719 84.890625"/><path fill="#4e1649" fill-opacity="1" fill-rule="nonzero" d="M 131.410156 53.050781 C 135.421875 49.6875 139.671875 46.644531 144.035156 43.753906 C 147.558594 41.414062 151.5 39.390625 155.855469 39.675781 C 158.945312 39.875 163.144531 41.375 161.453125 45.238281 C 161.453125 45.238281 178.277344 36.421875 184.886719 42.835938 C 191.496094 49.246094 184.285156 58.261719 184.285156 58.261719 C 184.285156 58.261719 190.898438 60.066406 188.492188 64.472656 C 186.089844 68.878906 173.671875 63.269531 173.671875 63.269531 C 173.671875 63.269531 178.078125 66.675781 175.273438 68.480469 C 172.46875 70.28125 150.835938 59.261719 150.835938 59.261719 Z M 131.410156 53.050781"/><path fill="#ffb4b2" fill-opacity="1" fill-rule="nonzero" d="M 130.472656 130.589844 C 130.472656 130.589844 142.757812 152.230469 153.441406 149.289062 C 164.125 146.351562 162.253906 134.0625 162.253906 134.0625 Z M 130.472656 130.589844"/><path fill="#ffebe9" fill-opacity="1" fill-rule="nonzero" d="M 187.257812 119.324219 C 187.425781 118.824219 187.539062 118.300781 187.539062 117.746094 C 187.539062 114.996094 185.308594 112.765625 182.558594 112.765625 C 179.8125 112.765625 177.582031 114.996094 177.582031 117.746094 C 177.582031 117.796875 177.59375 117.84375 177.597656 117.894531 C 177.546875 117.894531 177.5 117.878906 177.449219 117.878906 C 174.699219 117.878906 172.46875 120.109375 172.46875 122.859375 C 172.46875 125.609375 174.699219 127.839844 177.449219 127.839844 C 178.792969 127.839844 180.007812 127.300781 180.90625 126.433594 C 181.785156 127.839844 183.335938 128.78125 185.117188 128.78125 C 187.867188 128.78125 190.09375 126.550781 190.09375 123.800781 C 190.09375 121.824219 188.933594 120.128906 187.257812 119.324219 Z M 187.257812 119.324219"/><path fill="#ffb4b2" fill-opacity="1" fill-rule="nonzero" d="M 198.574219 165.855469 C 198.574219 165.855469 224.746094 234.777344 244.242188 226.496094 C 263.738281 218.214844 243.441406 183.753906 232.222656 169.328125 C 221.007812 154.902344 212.328125 147.820312 212.328125 147.820312 Z M 198.574219 165.855469"/><path fill="#ffb4b2" fill-opacity="1" fill-rule="nonzero" d="M 198.574219 165.855469 C 198.574219 165.855469 193.234375 160.644531 191.632812 154.367188 C 190.027344 148.089844 189.226562 140.074219 189.226562 140.074219 C 189.226562 140.074219 176.410156 134.195312 176.542969 132.726562 C 176.675781 131.257812 184.285156 132.859375 184.285156 132.859375 C 184.285156 132.859375 173.871094 126.449219 174.671875 125.113281 C 175.472656 123.777344 196.039062 130.859375 196.039062 130.859375 C 196.039062 130.859375 176.542969 122.042969 177.742188 120.039062 C 178.945312 118.035156 199.242188 126.316406 199.242188 126.316406 C 199.242188 126.316406 181.882812 115.363281 182.953125 113.625 C 184.019531 111.890625 202.714844 120.707031 204.984375 122.578125 C 207.253906 124.445312 208.589844 134.730469 209.65625 139.539062 C 210.726562 144.347656 211.261719 146.753906 212.460938 148.222656 Z M 198.574219 165.855469"/><path fill="#4e1649" fill-opacity="1" fill-rule="nonzero" d="M 155.164062 258.019531 L 111.648438 250.804688 L 236.605469 246.265625 L 255.15625 257.929688 Z M 155.164062 258.019531"/><path fill="#4e1649" fill-opacity="1" fill-rule="nonzero" d="M 156.390625 255.613281 L 196.5 171.0625 L 300.859375 171.0625 L 269.753906 254.011719 C 269.753906 254.011719 157.210938 256.414062 156.390625 255.613281 Z M 156.390625 255.613281"/><path fill="#4e1649" fill-opacity="1" fill-rule="nonzero" d="M 269.8125 253.8125 L 268.144531 257.917969 L 155.164062 258.019531 L 157.757812 252.410156 Z M 269.8125 253.8125"/><path fill="#006ae1" fill-opacity="1" fill-rule="nonzero" d="M 245.4375 218.519531 C 243.292969 224.585938 238.152344 228.347656 233.949219 226.925781 C 229.75 225.5 228.082031 219.429688 230.226562 213.367188 C 232.371094 207.300781 237.515625 203.539062 241.714844 204.960938 C 245.914062 206.386719 247.582031 212.457031 245.4375 218.519531 Z M 245.4375 218.519531"/><path fill="#fff" fill-opacity="1" fill-rule="nonzero" d="M 73.722656 193.703125 C 73.722656 193.703125 74.007812 182.453125 81.445312 180.28125 C 89.214844 178.007812 91.59375 182.949219 91.59375 182.949219 C 91.59375 182.949219 89.726562 170.664062 95.601562 169.859375 C 101.476562 169.058594 103.613281 175.472656 103.613281 175.472656 C 103.613281 175.472656 105.75 165.855469 113.226562 168.792969 C 120.703125 171.730469 118.300781 179.210938 118.300781 179.210938 C 118.300781 179.210938 121.773438 172.800781 127.113281 175.203125 C 132.453125 177.609375 129.519531 188.292969 129.519531 188.292969 C 129.519531 188.292969 134.058594 180.8125 139.132812 183.753906 C 144.207031 186.691406 142.070312 193.371094 142.070312 193.371094 C 142.070312 193.371094 144.738281 187.492188 150.617188 190.164062 C 156.492188 192.835938 152.21875 200.582031 152.21875 200.582031 L 151.148438 206.726562 Z M 73.722656 193.703125"/><path fill="#ffebe9" fill-opacity="1" fill-rule="nonzero" d="M 160.328125 201.695312 C 159.851562 202.796875 158.769531 203.5 157.59375 203.5 C 157.449219 203.5 157.3125 203.488281 157.167969 203.464844 L 153.820312 202.988281 L 139.808594 254.855469 L 138.953125 258.019531 L 67.515625 258.019531 L 73.425781 193.480469 L 73.425781 193.457031 L 73.703125 190.488281 L 73.703125 190.429688 L 73.324219 190.363281 L 70.652344 189.875 C 69.074219 189.585938 67.992188 188.105469 68.214844 186.523438 C 68.417969 185.023438 69.707031 183.929688 71.175781 183.929688 C 71.332031 183.929688 71.5 183.941406 71.652344 183.964844 L 75.335938 184.542969 L 153.53125 196.875 L 158.058594 197.589844 C 159.972656 197.890625 161.085938 199.914062 160.328125 201.695312 Z M 160.328125 201.695312"/><path fill="#f66" fill-opacity="1" fill-rule="nonzero" d="M 80.824219 191.644531 L 80.480469 194.359375 L 80.433594 194.660156 L 72.367188 258.019531 L 70.175781 258.019531 L 75.894531 193.882812 L 75.90625 193.792969 L 76.160156 190.886719 Z M 80.824219 191.644531"/><path fill="#f66" fill-opacity="1" fill-rule="nonzero" d="M 93.195312 193.660156 L 92.820312 195.886719 L 92.664062 196.742188 L 82.125 258.019531 L 78.375 258.019531 L 87.757812 195.90625 L 87.855469 195.273438 L 88.222656 192.847656 Z M 93.195312 193.660156"/><path fill="#f66" fill-opacity="1" fill-rule="nonzero" d="M 106.128906 195.761719 L 105.769531 197.5 L 105.46875 198.933594 L 93.296875 258.019531 L 89.503906 258.019531 L 100.5625 198.089844 L 100.785156 196.875 L 101.140625 194.949219 Z M 106.128906 195.761719"/><path fill="#f66" fill-opacity="1" fill-rule="nonzero" d="M 118.402344 197.765625 L 118.144531 199.035156 L 117.734375 201.015625 L 105.992188 258.019531 L 102.144531 258.019531 L 112.816406 200.183594 L 113.148438 198.414062 L 113.414062 196.953125 Z M 118.402344 197.765625"/><path fill="#f66" fill-opacity="1" fill-rule="nonzero" d="M 129.640625 199.59375 L 129.484375 200.4375 L 129.027344 202.953125 L 119.011719 258.019531 L 115.128906 258.019531 L 124.121094 202.109375 L 124.488281 199.816406 L 124.65625 198.777344 Z M 129.640625 199.59375"/><path fill="#f66" fill-opacity="1" fill-rule="nonzero" d="M 139.644531 201.21875 L 139.554688 201.695312 L 139.019531 204.65625 L 129.304688 258.019531 L 125.421875 258.019531 L 134.136719 203.820312 L 134.582031 201.074219 L 134.679688 200.414062 Z M 139.644531 201.21875"/><path fill="#f66" fill-opacity="1" fill-rule="nonzero" d="M 149.28125 202.785156 L 149.257812 202.898438 L 148.644531 206.304688 L 139.808594 254.855469 L 139.230469 258.019531 L 135.304688 258.019531 L 143.75 205.457031 L 144.261719 202.273438 L 144.304688 201.972656 Z M 149.28125 202.785156"/><path fill="#4e1649" fill-opacity="1" fill-rule="nonzero" d="M 73.703125 190.488281 L 152.152344 203.253906 L 73.425781 193.480469 Z M 73.703125 190.488281"/><path fill="#ff8a96" fill-opacity="1" fill-rule="nonzero" d="M 254.328125 107.402344 C 253.390625 108.417969 253.578125 110.121094 254.746094 111.207031 L 254.800781 111.253906 L 253.484375 112.675781 L 253.429688 112.625 C 252.261719 111.542969 250.546875 111.484375 249.609375 112.496094 C 248.671875 113.511719 248.859375 115.214844 250.027344 116.300781 L 250.082031 116.347656 L 248.980469 117.535156 L 248.929688 117.484375 C 247.761719 116.402344 246.046875 116.34375 245.109375 117.355469 C 244.167969 118.371094 244.359375 120.074219 245.527344 121.160156 L 245.578125 121.207031 L 243.605469 123.339844 C 240.714844 120.660156 236.484375 120.519531 234.167969 123.019531 L 193.953125 85.746094 C 196.269531 83.246094 195.804688 79.035156 192.917969 76.359375 L 194.898438 74.21875 C 194.933594 74.265625 194.980469 74.308594 195.023438 74.347656 C 196.191406 75.433594 197.90625 75.488281 198.84375 74.476562 C 199.78125 73.464844 199.59375 71.757812 198.425781 70.675781 C 198.382812 70.632812 198.335938 70.59375 198.285156 70.5625 L 199.398438 69.359375 C 199.4375 69.40625 199.480469 69.449219 199.523438 69.488281 C 200.691406 70.570312 202.40625 70.628906 203.34375 69.617188 C 204.285156 68.605469 204.09375 66.898438 202.925781 65.816406 C 202.882812 65.773438 202.839844 65.734375 202.789062 65.703125 L 204.117188 64.265625 C 204.15625 64.3125 204.199219 64.355469 204.242188 64.394531 C 205.410156 65.476562 207.125 65.535156 208.0625 64.523438 C 209.003906 63.511719 208.8125 61.804688 207.644531 60.722656 C 207.601562 60.679688 207.558594 60.640625 207.507812 60.605469 L 209.550781 58.398438 C 212.441406 61.078125 216.671875 61.21875 218.988281 58.71875 L 259.203125 95.992188 C 256.886719 98.496094 257.351562 102.703125 260.238281 105.382812 L 258.203125 107.582031 L 258.148438 107.53125 C 256.980469 106.449219 255.265625 106.390625 254.328125 107.402344 Z M 254.328125 107.402344"/><path fill="#ffeae8" fill-opacity="1" fill-rule="nonzero" d="M 233.199219 118.277344 L 198.757812 86.351562 L 198.960938 86.132812 C 199.90625 85.109375 200.398438 83.777344 200.347656 82.382812 C 200.292969 80.992188 199.703125 79.699219 198.679688 78.753906 L 198.460938 78.550781 L 212.160156 63.761719 L 212.378906 63.964844 C 213.402344 64.914062 214.738281 65.402344 216.125 65.351562 C 217.515625 65.296875 218.808594 64.707031 219.753906 63.683594 L 219.957031 63.464844 L 254.398438 95.390625 L 254.199219 95.609375 C 252.242188 97.71875 252.367188 101.03125 254.476562 102.984375 L 254.695312 103.1875 L 240.996094 117.976562 L 240.777344 117.777344 C 239.757812 116.828125 238.421875 116.347656 237.03125 116.386719 C 235.640625 116.441406 234.351562 117.035156 233.402344 118.058594 Z M 199.59375 86.3125 L 233.175781 117.441406 C 234.207031 116.429688 235.558594 115.847656 237.011719 115.792969 C 238.449219 115.742188 239.855469 116.214844 240.960938 117.140625 L 253.859375 103.214844 C 251.785156 101.085938 251.65625 97.707031 253.5625 95.425781 L 219.980469 64.300781 C 218.949219 65.308594 217.597656 65.890625 216.148438 65.945312 C 214.695312 66 213.304688 65.523438 212.195312 64.597656 L 199.296875 78.527344 C 200.304688 79.558594 200.886719 80.910156 200.941406 82.363281 C 200.996094 83.816406 200.519531 85.207031 199.59375 86.3125 Z M 199.59375 86.3125"/><path fill="#ffeae8" fill-opacity="1" fill-rule="nonzero" d="M 217.59375 71.667969 C 217.636719 71.710938 217.675781 71.765625 217.707031 71.828125 C 217.734375 71.890625 217.746094 71.960938 217.738281 72.039062 L 216.695312 78.527344 L 216.441406 78.273438 L 222.832031 76.757812 C 222.992188 76.726562 223.117188 76.765625 223.210938 76.875 C 223.285156 76.949219 223.328125 77.035156 223.332031 77.140625 C 223.335938 77.246094 223.300781 77.34375 223.222656 77.425781 L 217.480469 83.625 C 217.40625 83.703125 217.316406 83.746094 217.203125 83.746094 C 217.089844 83.753906 216.992188 83.714844 216.910156 83.636719 C 216.816406 83.554688 216.769531 83.457031 216.765625 83.34375 C 216.761719 83.230469 216.796875 83.136719 216.867188 83.058594 L 222.0625 77.453125 L 222.21875 77.632812 L 216.332031 79.070312 C 216.277344 79.09375 216.21875 79.097656 216.160156 79.082031 C 216.101562 79.070312 216.046875 79.035156 216.003906 78.980469 C 215.949219 78.945312 215.914062 78.898438 215.894531 78.835938 C 215.875 78.773438 215.867188 78.710938 215.878906 78.648438 L 216.890625 72.621094 L 217.191406 72.664062 L 211.859375 78.417969 C 211.789062 78.496094 211.699219 78.539062 211.589844 78.546875 C 211.480469 78.554688 211.386719 78.519531 211.300781 78.441406 C 211.21875 78.363281 211.175781 78.269531 211.179688 78.164062 C 211.179688 78.058594 211.21875 77.96875 211.289062 77.890625 L 217.03125 71.691406 C 217.105469 71.613281 217.195312 71.570312 217.304688 71.5625 C 217.414062 71.554688 217.507812 71.589844 217.59375 71.667969 Z M 217.59375 71.667969"/><path fill="#ffeae8" fill-opacity="1" fill-rule="nonzero" d="M 225.753906 87.226562 C 225.296875 87.71875 224.78125 88.058594 224.203125 88.246094 C 223.625 88.4375 223.046875 88.472656 222.476562 88.355469 C 221.898438 88.238281 221.378906 87.960938 220.914062 87.53125 C 220.457031 87.105469 220.144531 86.609375 219.980469 86.042969 C 219.816406 85.476562 219.808594 84.898438 219.953125 84.308594 C 220.097656 83.714844 220.398438 83.175781 220.851562 82.683594 C 221.3125 82.1875 221.832031 81.84375 222.40625 81.65625 C 222.980469 81.472656 223.558594 81.4375 224.140625 81.554688 C 224.71875 81.671875 225.238281 81.945312 225.699219 82.367188 C 226.164062 82.800781 226.476562 83.296875 226.632812 83.867188 C 226.792969 84.433594 226.800781 85.011719 226.65625 85.597656 C 226.515625 86.1875 226.214844 86.730469 225.753906 87.226562 Z M 225.171875 86.6875 C 225.535156 86.292969 225.78125 85.867188 225.902344 85.414062 C 226.023438 84.957031 226.027344 84.507812 225.914062 84.070312 C 225.796875 83.632812 225.558594 83.246094 225.195312 82.910156 C 224.839844 82.582031 224.441406 82.375 223.996094 82.292969 C 223.550781 82.210938 223.101562 82.246094 222.652344 82.402344 C 222.207031 82.554688 221.796875 82.828125 221.433594 83.222656 C 221.070312 83.617188 220.828125 84.042969 220.710938 84.5 C 220.59375 84.953125 220.59375 85.402344 220.710938 85.839844 C 220.828125 86.277344 221.0625 86.660156 221.417969 86.988281 C 221.777344 87.324219 222.183594 87.535156 222.628906 87.617188 C 223.074219 87.699219 223.515625 87.664062 223.960938 87.507812 C 224.402344 87.355469 224.808594 87.082031 225.171875 86.6875 Z M 225.171875 86.6875"/><path fill="#ffeae8" fill-opacity="1" fill-rule="nonzero" d="M 229.164062 85.601562 C 229.214844 85.648438 229.253906 85.710938 229.277344 85.792969 C 229.296875 85.871094 229.292969 85.957031 229.257812 86.042969 L 227.21875 91.644531 L 227.019531 91.605469 L 232.558594 89.105469 C 232.730469 89.023438 232.878906 89.050781 233.011719 89.179688 C 233.074219 89.242188 233.117188 89.320312 233.136719 89.414062 C 233.15625 89.511719 233.128906 89.597656 233.058594 89.675781 C 233.023438 89.714844 232.988281 89.742188 232.957031 89.753906 C 232.925781 89.769531 232.894531 89.785156 232.867188 89.804688 L 226.839844 92.5 C 226.679688 92.570312 226.535156 92.550781 226.410156 92.441406 C 226.34375 92.394531 226.300781 92.328125 226.28125 92.242188 C 226.257812 92.15625 226.261719 92.070312 226.289062 91.988281 L 228.507812 85.765625 C 228.511719 85.746094 228.523438 85.71875 228.542969 85.6875 C 228.558594 85.65625 228.582031 85.628906 228.605469 85.601562 C 228.671875 85.53125 228.753906 85.492188 228.863281 85.480469 C 228.96875 85.46875 229.070312 85.511719 229.164062 85.601562 Z M 229.164062 85.601562"/><path fill="#ffeae8" fill-opacity="1" fill-rule="nonzero" d="M 235.257812 90.078125 C 235.125 89.953125 235.050781 89.828125 235.039062 89.703125 C 235.027344 89.578125 235.078125 89.457031 235.183594 89.34375 L 235.273438 89.246094 C 235.382812 89.128906 235.5 89.074219 235.632812 89.082031 C 235.761719 89.089844 235.894531 89.152344 236.023438 89.273438 C 236.144531 89.386719 236.210938 89.503906 236.222656 89.628906 C 236.234375 89.753906 236.1875 89.875 236.078125 89.992188 L 235.988281 90.085938 C 235.882812 90.203125 235.765625 90.261719 235.640625 90.257812 C 235.515625 90.257812 235.386719 90.199219 235.257812 90.078125 Z M 230.550781 95.742188 C 230.480469 95.820312 230.386719 95.863281 230.277344 95.863281 C 230.164062 95.871094 230.070312 95.835938 229.992188 95.765625 C 229.90625 95.6875 229.867188 95.59375 229.863281 95.484375 C 229.863281 95.375 229.898438 95.28125 229.972656 95.203125 L 234.097656 90.75 C 234.171875 90.671875 234.261719 90.628906 234.367188 90.621094 C 234.476562 90.613281 234.574219 90.648438 234.65625 90.726562 C 234.742188 90.804688 234.785156 90.898438 234.785156 91.007812 C 234.785156 91.117188 234.75 91.210938 234.679688 91.289062 Z M 230.550781 95.742188"/><path fill="#ffeae8" fill-opacity="1" fill-rule="nonzero" d="M 233.902344 99.566406 C 233.402344 99.105469 233.0625 98.59375 232.878906 98.027344 C 232.695312 97.460938 232.675781 96.890625 232.816406 96.308594 C 232.953125 95.730469 233.261719 95.1875 233.734375 94.675781 C 234.242188 94.128906 234.785156 93.761719 235.359375 93.574219 C 235.933594 93.386719 236.492188 93.347656 237.03125 93.457031 C 237.570312 93.570312 238.035156 93.804688 238.421875 94.160156 C 238.707031 94.425781 238.933594 94.730469 239.113281 95.078125 C 239.285156 95.429688 239.386719 95.796875 239.410156 96.183594 C 239.433594 96.574219 239.378906 96.96875 239.246094 97.375 C 239.109375 97.777344 238.875 98.171875 238.53125 98.550781 C 238.460938 98.628906 238.371094 98.667969 238.261719 98.667969 C 238.152344 98.667969 238.058594 98.632812 237.980469 98.5625 L 234.097656 94.960938 L 234.46875 94.332031 L 238.28125 97.867188 L 238.050781 97.867188 L 238.226562 97.675781 C 238.476562 97.339844 238.617188 96.988281 238.644531 96.621094 C 238.675781 96.253906 238.625 95.902344 238.488281 95.574219 C 238.355469 95.246094 238.160156 94.964844 237.902344 94.722656 C 237.707031 94.542969 237.472656 94.398438 237.199219 94.289062 C 236.921875 94.179688 236.625 94.128906 236.308594 94.140625 C 235.992188 94.152344 235.664062 94.238281 235.324219 94.398438 C 234.984375 94.558594 234.652344 94.808594 234.332031 95.160156 C 233.976562 95.539062 233.734375 95.957031 233.601562 96.410156 C 233.472656 96.863281 233.464844 97.316406 233.589844 97.765625 C 233.710938 98.21875 233.980469 98.632812 234.394531 99.015625 C 234.613281 99.21875 234.84375 99.371094 235.085938 99.476562 C 235.324219 99.578125 235.5625 99.640625 235.800781 99.664062 C 236.039062 99.6875 236.257812 99.679688 236.453125 99.648438 C 236.578125 99.65625 236.675781 99.691406 236.738281 99.75 C 236.808594 99.816406 236.84375 99.898438 236.847656 99.992188 C 236.84375 100.089844 236.816406 100.171875 236.757812 100.234375 C 236.683594 100.3125 236.589844 100.351562 236.472656 100.347656 C 236.0625 100.402344 235.625 100.371094 235.15625 100.253906 C 234.6875 100.136719 234.269531 99.910156 233.902344 99.566406 Z M 233.902344 99.566406"/><path fill="#ffeae8" fill-opacity="1" fill-rule="nonzero" d="M 237.625 101.378906 C 237.640625 101.253906 237.6875 101.15625 237.761719 101.085938 C 237.832031 101.011719 237.929688 100.992188 238.046875 101.015625 C 238.140625 101.019531 238.21875 101.058594 238.28125 101.125 C 238.34375 101.195312 238.375 101.285156 238.378906 101.398438 C 238.34375 101.785156 238.386719 102.164062 238.507812 102.53125 C 238.625 102.902344 238.859375 103.246094 239.203125 103.5625 C 239.382812 103.730469 239.589844 103.867188 239.824219 103.96875 C 240.058594 104.070312 240.292969 104.113281 240.523438 104.097656 C 240.757812 104.078125 240.964844 103.972656 241.144531 103.777344 C 241.328125 103.578125 241.421875 103.363281 241.417969 103.132812 C 241.414062 102.902344 241.355469 102.667969 241.238281 102.425781 C 241.117188 102.183594 240.980469 101.941406 240.820312 101.699219 C 240.65625 101.4375 240.503906 101.171875 240.367188 100.90625 C 240.226562 100.640625 240.132812 100.378906 240.078125 100.117188 C 240.027344 99.859375 240.023438 99.601562 240.078125 99.351562 C 240.128906 99.101562 240.265625 98.859375 240.480469 98.625 C 240.730469 98.355469 241.027344 98.183594 241.367188 98.117188 C 241.707031 98.046875 242.058594 98.074219 242.421875 98.191406 C 242.785156 98.3125 243.125 98.523438 243.449219 98.820312 C 243.609375 98.972656 243.765625 99.152344 243.914062 99.367188 C 244.0625 99.585938 244.179688 99.824219 244.273438 100.089844 C 244.363281 100.351562 244.402344 100.636719 244.390625 100.933594 C 244.394531 101.046875 244.359375 101.140625 244.292969 101.214844 C 244.222656 101.289062 244.128906 101.324219 244.011719 101.324219 C 243.921875 101.3125 243.847656 101.277344 243.777344 101.214844 C 243.710938 101.152344 243.679688 101.074219 243.679688 100.980469 C 243.6875 100.660156 243.625 100.359375 243.496094 100.070312 C 243.367188 99.785156 243.179688 99.523438 242.933594 99.296875 C 242.746094 99.125 242.542969 98.992188 242.320312 98.902344 C 242.101562 98.808594 241.878906 98.773438 241.652344 98.796875 C 241.429688 98.816406 241.226562 98.929688 241.039062 99.128906 C 240.878906 99.328125 240.804688 99.539062 240.816406 99.765625 C 240.828125 99.992188 240.898438 100.238281 241.023438 100.496094 C 241.148438 100.757812 241.304688 101.035156 241.488281 101.324219 C 241.648438 101.570312 241.789062 101.8125 241.914062 102.0625 C 242.039062 102.308594 242.125 102.554688 242.171875 102.796875 C 242.21875 103.035156 242.207031 103.277344 242.148438 103.519531 C 242.085938 103.761719 241.941406 104.003906 241.710938 104.25 C 241.449219 104.535156 241.140625 104.707031 240.792969 104.765625 C 240.445312 104.828125 240.085938 104.789062 239.71875 104.652344 C 239.351562 104.519531 239.007812 104.300781 238.683594 104 C 238.335938 103.679688 238.0625 103.296875 237.863281 102.859375 C 237.660156 102.421875 237.582031 101.929688 237.625 101.378906 Z M 237.625 101.378906"/><path fill="#ffeae8" fill-opacity="1" fill-rule="nonzero" d="M 223.828125 94.101562 L 222.800781 96.324219 L 224.597656 97.984375 L 222.167969 97.695312 L 221.140625 99.917969 L 220.667969 97.515625 L 218.238281 97.226562 L 220.375 96.03125 L 219.898438 93.632812 L 221.695312 95.296875 Z M 223.828125 94.101562"/><path fill="#ffeae8" fill-opacity="1" fill-rule="nonzero" d="M 230.828125 100.589844 L 229.800781 102.808594 L 231.59375 104.472656 L 229.164062 104.179688 L 228.140625 106.402344 L 227.664062 104 L 225.234375 103.710938 L 227.371094 102.519531 L 226.898438 100.117188 L 228.691406 101.78125 Z M 230.828125 100.589844"/><path fill="#ffeae8" fill-opacity="1" fill-rule="nonzero" d="M 216.128906 86.964844 L 215.101562 89.1875 L 216.898438 90.851562 L 214.46875 90.558594 L 213.441406 92.78125 L 212.96875 90.378906 L 210.539062 90.089844 L 212.675781 88.898438 L 212.199219 86.496094 L 213.996094 88.160156 Z M 216.128906 86.964844"/><path fill="#ffc66e" fill-opacity="1" fill-rule="nonzero" d="M 114.898438 101.632812 C 115.351562 102.238281 115.773438 102.863281 116.167969 103.511719 C 116.558594 104.15625 116.921875 104.820312 117.246094 105.503906 C 117.574219 106.1875 117.867188 106.882812 118.125 107.59375 C 118.386719 108.304688 118.609375 109.027344 118.796875 109.761719 C 118.984375 110.492188 119.136719 111.234375 119.25 111.980469 C 119.367188 112.730469 119.445312 113.480469 119.488281 114.238281 C 119.527344 114.992188 119.53125 115.75 119.5 116.503906 C 119.464844 117.261719 119.398438 118.015625 119.289062 118.761719 C 119.183594 119.511719 119.039062 120.253906 118.859375 120.988281 C 118.679688 121.726562 118.464844 122.449219 118.214844 123.164062 C 117.964844 123.878906 117.679688 124.578125 117.359375 125.261719 C 117.039062 125.949219 116.6875 126.617188 116.300781 127.269531 C 115.914062 127.921875 115.5 128.550781 115.050781 129.160156 C 114.605469 129.773438 114.128906 130.359375 113.625 130.921875 C 113.121094 131.488281 112.589844 132.023438 112.03125 132.535156 C 111.472656 133.046875 110.890625 133.53125 110.285156 133.984375 C 109.679688 134.4375 109.054688 134.863281 108.40625 135.253906 C 107.761719 135.648438 107.097656 136.007812 106.414062 136.335938 C 105.734375 136.664062 105.035156 136.957031 104.324219 137.214844 C 103.613281 137.472656 102.894531 137.695312 102.160156 137.886719 C 101.425781 138.074219 100.6875 138.226562 99.9375 138.339844 C 99.191406 138.457031 98.441406 138.535156 97.683594 138.574219 C 96.929688 138.617188 96.171875 138.621094 95.417969 138.585938 C 94.660156 138.554688 93.910156 138.484375 93.160156 138.378906 C 92.410156 138.273438 91.667969 138.128906 90.933594 137.949219 C 90.199219 137.769531 89.476562 137.554688 88.761719 137.300781 C 88.046875 137.050781 87.347656 136.765625 86.660156 136.445312 C 85.976562 136.125 85.308594 135.773438 84.65625 135.390625 C 84.003906 135.003906 83.375 134.585938 82.765625 134.140625 C 82.152344 133.691406 81.566406 133.214844 81.003906 132.710938 C 80.441406 132.207031 79.902344 131.675781 79.390625 131.117188 C 78.878906 130.558594 78.398438 129.976562 77.945312 129.371094 C 77.488281 128.765625 77.066406 128.140625 76.671875 127.492188 C 76.28125 126.847656 75.921875 126.183594 75.59375 125.5 C 75.265625 124.816406 74.972656 124.121094 74.714844 123.410156 C 74.457031 122.699219 74.230469 121.976562 74.042969 121.242188 C 73.855469 120.511719 73.703125 119.769531 73.589844 119.023438 C 73.472656 118.273438 73.394531 117.523438 73.355469 116.765625 C 73.3125 116.011719 73.308594 115.253906 73.339844 114.5 C 73.375 113.742188 73.445312 112.988281 73.550781 112.242188 C 73.65625 111.492188 73.800781 110.75 73.980469 110.015625 C 74.160156 109.277344 74.375 108.554688 74.625 107.839844 C 74.878906 107.125 75.164062 106.425781 75.484375 105.738281 C 75.800781 105.054688 76.15625 104.386719 76.539062 103.734375 C 76.925781 103.082031 77.339844 102.453125 77.789062 101.839844 C 78.234375 101.230469 78.710938 100.644531 79.21875 100.082031 C 79.722656 99.515625 80.253906 98.980469 80.8125 98.46875 C 81.367188 97.957031 81.949219 97.472656 82.554688 97.019531 C 83.160156 96.566406 83.785156 96.140625 84.433594 95.75 C 85.078125 95.355469 85.742188 94.996094 86.425781 94.667969 C 87.109375 94.339844 87.804688 94.046875 88.515625 93.789062 C 89.226562 93.53125 89.949219 93.304688 90.679688 93.117188 C 91.414062 92.929688 92.15625 92.777344 92.902344 92.664062 C 93.648438 92.546875 94.402344 92.46875 95.15625 92.429688 C 95.914062 92.386719 96.667969 92.382812 97.425781 92.414062 C 98.179688 92.449219 98.933594 92.519531 99.679688 92.625 C 100.429688 92.730469 101.171875 92.875 101.90625 93.054688 C 102.640625 93.234375 103.367188 93.449219 104.082031 93.699219 C 104.792969 93.953125 105.492188 94.238281 106.179688 94.558594 C 106.867188 94.875 107.535156 95.230469 108.183594 95.613281 C 108.835938 96 109.464844 96.417969 110.078125 96.863281 C 110.6875 97.3125 111.273438 97.789062 111.835938 98.292969 C 112.402344 98.796875 112.9375 99.328125 113.449219 99.886719 C 113.960938 100.445312 114.441406 101.027344 114.898438 101.632812 Z M 114.898438 101.632812"/><path fill="#ffebe9" fill-opacity="1" fill-rule="nonzero" d="M 91.703125 122.941406 L 84.523438 120 L 79.507812 125.917969 L 80.085938 118.179688 L 72.910156 115.234375 L 80.445312 113.394531 L 81.027344 105.65625 L 85.105469 112.257812 L 92.644531 110.421875 L 87.625 116.339844 Z M 91.703125 122.941406"/><path fill="#ffebe9" fill-opacity="1" fill-rule="nonzero" d="M 115.398438 117.003906 L 108.21875 114.058594 L 103.199219 119.980469 L 103.78125 112.238281 L 96.601562 109.296875 L 104.140625 107.457031 L 104.71875 99.714844 L 108.796875 106.320312 L 116.335938 104.480469 L 111.320312 110.398438 Z M 115.398438 117.003906"/><path fill="#4e1649" fill-opacity="1" fill-rule="nonzero" d="M 97.285156 121.347656 C 95.039062 121.347656 93.300781 117.59375 93.222656 117.421875 C 93.164062 117.289062 93.222656 117.132812 93.355469 117.074219 C 93.488281 117.011719 93.640625 117.070312 93.703125 117.207031 C 93.722656 117.246094 95.59375 121.285156 97.648438 120.777344 C 99.714844 120.257812 99.652344 115.84375 99.652344 115.800781 C 99.648438 115.65625 99.765625 115.535156 99.910156 115.53125 C 99.910156 115.53125 99.914062 115.53125 99.914062 115.53125 C 100.058594 115.53125 100.175781 115.644531 100.179688 115.789062 C 100.183594 115.988281 100.25 120.667969 97.777344 121.289062 C 97.609375 121.328125 97.445312 121.347656 97.285156 121.347656 Z M 97.285156 121.347656"/><path fill="#ffebe9" fill-opacity="1" fill-rule="nonzero" d="M 253.480469 150.789062 L 248.292969 152.945312 L 246.136719 158.132812 C 245.855469 158.8125 244.894531 158.8125 244.613281 158.132812 L 242.457031 152.945312 L 237.273438 150.789062 C 236.59375 150.507812 236.59375 149.546875 237.273438 149.261719 L 242.457031 147.105469 L 244.613281 141.917969 C 244.894531 141.242188 245.855469 141.242188 246.136719 141.917969 L 248.292969 147.105469 L 253.480469 149.261719 C 254.160156 149.546875 254.160156 150.503906 253.480469 150.789062 Z M 253.480469 150.789062"/><path fill="#ffebe9" fill-opacity="1" fill-rule="nonzero" d="M 92.445312 160.40625 L 87.257812 162.5625 L 85.101562 167.75 C 84.820312 168.425781 83.859375 168.425781 83.578125 167.75 L 81.421875 162.5625 L 76.234375 160.40625 C 75.558594 160.125 75.558594 159.164062 76.234375 158.878906 L 81.421875 156.722656 L 83.578125 151.535156 C 83.859375 150.859375 84.820312 150.859375 85.101562 151.535156 L 87.257812 156.722656 L 92.445312 158.878906 C 93.121094 159.164062 93.121094 160.125 92.445312 160.40625 Z M 92.445312 160.40625"/><path fill="#ffebe9" fill-opacity="1" fill-rule="nonzero" d="M 206.410156 247.160156 L 201.226562 249.316406 L 199.070312 254.503906 C 198.789062 255.183594 197.828125 255.183594 197.546875 254.503906 L 195.390625 249.316406 L 190.203125 247.160156 C 189.527344 246.878906 189.527344 245.917969 190.203125 245.636719 L 195.390625 243.480469 L 197.546875 238.292969 C 197.828125 237.613281 198.789062 237.613281 199.070312 238.292969 L 201.226562 243.480469 L 206.410156 245.636719 C 207.089844 245.917969 207.089844 246.878906 206.410156 247.160156 Z M 206.410156 247.160156"/><path fill="#ffebe9" fill-opacity="1" fill-rule="nonzero" d="M 227.441406 58.625 L 222.257812 60.78125 L 220.101562 65.96875 C 219.820312 66.644531 218.859375 66.644531 218.578125 65.96875 L 216.421875 60.78125 L 211.234375 58.625 C 210.558594 58.339844 210.558594 57.378906 211.234375 57.097656 L 216.421875 54.941406 L 218.578125 49.753906 C 218.859375 49.078125 219.820312 49.078125 220.101562 49.753906 L 222.257812 54.941406 L 227.441406 57.097656 C 228.121094 57.378906 228.121094 58.339844 227.441406 58.625 Z M 227.441406 58.625"/><path fill="#ffebe9" fill-opacity="1" fill-rule="nonzero" d="M 121.285156 69.042969 L 116.101562 71.199219 L 113.945312 76.386719 C 113.664062 77.0625 112.703125 77.0625 112.421875 76.386719 L 110.265625 71.199219 L 105.078125 69.042969 C 104.402344 68.761719 104.402344 67.800781 105.078125 67.515625 L 110.265625 65.359375 L 112.421875 60.171875 C 112.703125 59.496094 113.664062 59.496094 113.945312 60.171875 L 116.101562 65.359375 L 121.285156 67.515625 C 121.964844 67.800781 121.964844 68.761719 121.285156 69.042969 Z M 121.285156 69.042969"/><g fill="#fff" fill-opacity="1"><g><g><path d="M 11.585938 0 C 12.390625 0 12.808594 -0.417969 12.808594 -1.222656 L 12.808594 -25.496094 L 25.792969 -8.609375 C 26.328125 -7.894531 26.984375 -7.894531 27.519531 -8.609375 L 40.566406 -25.554688 L 40.566406 -1.222656 C 40.566406 -0.417969 40.984375 0 41.785156 0 L 47.566406 0 C 48.367188 0 48.785156 -0.417969 48.785156 -1.222656 L 48.785156 -44.765625 C 48.785156 -47.058594 47.179688 -47.566406 45.808594 -45.75 L 26.65625 -20.433594 L 7.566406 -45.75 C 6.164062 -47.59375 4.585938 -47.058594 4.585938 -44.765625 L 4.585938 -1.222656 C 4.585938 -0.417969 5.003906 0 5.808594 0 Z M 11.585938 0" transform="translate(57.196923, 323.850068)"/></g></g></g><g fill="#fff" fill-opacity="1"><g><g><path d="M 19.507812 0.683594 C 29.1875 0.683594 36.484375 -6.105469 36.484375 -15.753906 C 36.484375 -25.433594 29.1875 -32.195312 19.507812 -32.195312 C 9.917969 -32.195312 2.621094 -25.433594 2.621094 -15.753906 C 2.621094 -6.105469 9.917969 0.683594 19.507812 0.683594 Z M 19.507812 -6.195312 C 14.175781 -6.195312 10.277344 -10.1875 10.277344 -15.753906 C 10.277344 -21.355469 14.175781 -25.347656 19.507812 -25.347656 C 24.957031 -25.347656 28.832031 -21.355469 28.832031 -15.753906 C 28.832031 -10.1875 24.957031 -6.195312 19.507812 -6.195312 Z M 19.507812 -6.195312" transform="translate(109.043519, 323.850068)"/></g></g></g><g fill="#fff" fill-opacity="1"><g><g><path d="M 15.457031 0.03125 C 16.351562 1.875 17.898438 1.847656 18.765625 0 L 32.671875 -30.113281 C 33.058594 -30.945312 32.671875 -31.542969 31.75 -31.542969 L 26.269531 -31.542969 C 25.585938 -31.542969 25.136719 -31.304688 24.871094 -30.617188 L 17.125 -11.316406 L 9.203125 -30.617188 C 8.933594 -31.273438 8.457031 -31.542969 7.773438 -31.542969 L 2.351562 -31.542969 C 1.429688 -31.542969 1.070312 -30.945312 1.460938 -30.113281 Z M 15.457031 0.03125" transform="translate(146.653723, 323.850068)"/></g></g></g><g fill="#fff" fill-opacity="1"><g><g><path d="M 7.894531 -34.578125 C 10.574219 -34.578125 12.570312 -36.605469 12.570312 -39.285156 C 12.570312 -41.9375 10.574219 -44.019531 7.894531 -44.019531 C 5.210938 -44.019531 3.1875 -41.9375 3.1875 -39.285156 C 3.1875 -36.605469 5.210938 -34.578125 7.894531 -34.578125 Z M 10.542969 0 C 11.347656 0 11.765625 -0.417969 11.765625 -1.222656 L 11.765625 -30.320312 C 11.765625 -31.09375 11.347656 -31.542969 10.542969 -31.542969 L 5.300781 -31.542969 C 4.527344 -31.542969 4.082031 -31.09375 4.082031 -30.320312 L 4.082031 -1.222656 C 4.082031 -0.417969 4.527344 0 5.300781 0 Z M 10.542969 0" transform="translate(179.290131, 323.850068)"/></g></g></g><g fill="#fff" fill-opacity="1"><g><g><path d="M 18.496094 -32.195312 C 9.5 -32.195312 2.710938 -25.734375 2.710938 -15.753906 C 2.710938 -5.660156 9.976562 0.683594 18.824219 0.683594 C 23.617188 0.683594 28.292969 -1.339844 31.808594 -5.035156 C 32.433594 -5.660156 32.433594 -6.253906 31.839844 -6.703125 L 28.921875 -9.917969 C 28.355469 -10.363281 27.90625 -10.335938 27.339844 -9.800781 C 24.988281 -7.386719 21.949219 -6.105469 19.03125 -6.105469 C 14.445312 -6.105469 10.425781 -9.171875 10.214844 -14.683594 L 32.644531 -14.683594 C 33.507812 -14.683594 33.953125 -14.980469 33.953125 -16.054688 C 33.953125 -25.734375 27.492188 -32.195312 18.496094 -32.195312 Z M 18.644531 -25.851562 C 21.890625 -25.851562 25.046875 -24.09375 25.972656 -20.074219 L 10.753906 -20.074219 C 11.882812 -24.125 15.488281 -25.851562 18.644531 -25.851562 Z M 18.644531 -25.851562" transform="translate(193.669402, 323.850068)"/></g></g></g><g fill="#ff1616" fill-opacity="1"><g><g><path d="M 20.371094 -45.898438 C 18.882812 -46.285156 17.511719 -46.433594 16.230469 -46.433594 C 9.769531 -46.433594 5.539062 -42.976562 5.539062 -35.742188 L 5.539062 -31.542969 L 3.542969 -31.542969 C 2.738281 -31.542969 2.324219 -31.09375 2.324219 -30.320312 L 2.324219 -26.507812 C 2.324219 -25.703125 2.738281 -25.285156 3.542969 -25.285156 L 5.539062 -25.285156 L 5.539062 -1.222656 C 5.539062 -0.417969 5.988281 0 6.761719 0 L 12.003906 0 C 12.808594 0 13.222656 -0.417969 13.222656 -1.222656 L 13.222656 -25.285156 L 17.601562 -25.285156 C 18.375 -25.285156 18.824219 -25.703125 18.824219 -26.507812 L 18.824219 -30.320312 C 18.824219 -31.09375 18.375 -31.542969 17.601562 -31.542969 L 13.222656 -31.542969 L 13.222656 -36.367188 C 13.222656 -39.078125 14.714844 -40.269531 16.917969 -40.269531 C 17.511719 -40.269531 18.199219 -40.179688 18.941406 -39.941406 C 19.65625 -39.761719 20.164062 -40.058594 20.371094 -40.804688 L 21.175781 -44.378906 C 21.355469 -45.152344 21.117188 -45.660156 20.371094 -45.898438 Z M 20.371094 -45.898438" transform="translate(228.677381, 323.850068)"/></g></g></g><g fill="#ff1616" fill-opacity="1"><g><g><path d="M 13.761719 0.683594 C 15.25 0.683594 16.859375 0.59375 18.585938 0 C 19.300781 -0.269531 19.566406 -0.863281 19.328125 -1.578125 L 18.289062 -5.332031 C 18.050781 -6.074219 17.542969 -6.34375 16.738281 -6.105469 C 15.992188 -5.867188 15.25 -5.777344 14.683594 -5.777344 C 12.746094 -5.777344 11.527344 -6.851562 11.527344 -9.382812 L 11.527344 -44.527344 C 11.527344 -45.332031 11.109375 -45.75 10.304688 -45.75 L 5.0625 -45.75 C 4.257812 -45.75 3.84375 -45.332031 3.84375 -44.527344 L 3.84375 -8.488281 C 3.84375 -2.53125 7.921875 0.683594 13.761719 0.683594 Z M 13.761719 0.683594" transform="translate(247.792193, 323.850068)"/></g></g></g><g fill="#ff1616" fill-opacity="1"><g><g><path d="M 7.894531 -34.578125 C 10.574219 -34.578125 12.570312 -36.605469 12.570312 -39.285156 C 12.570312 -41.9375 10.574219 -44.019531 7.894531 -44.019531 C 5.210938 -44.019531 3.1875 -41.9375 3.1875 -39.285156 C 3.1875 -36.605469 5.210938 -34.578125 7.894531 -34.578125 Z M 10.542969 0 C 11.347656 0 11.765625 -0.417969 11.765625 -1.222656 L 11.765625 -30.320312 C 11.765625 -31.09375 11.347656 -31.542969 10.542969 -31.542969 L 5.300781 -31.542969 C 4.527344 -31.542969 4.082031 -31.09375 4.082031 -30.320312 L 4.082031 -1.222656 C 4.082031 -0.417969 4.527344 0 5.300781 0 Z M 10.542969 0" transform="translate(267.085705, 323.850068)"/></g></g></g><g fill="#ff1616" fill-opacity="1"><g><g><path d="M 9.324219 0 C 9.976562 0 10.453125 -0.296875 10.78125 -0.804688 L 18.109375 -11.140625 L 25.433594 -0.804688 C 25.792969 -0.238281 26.269531 0 26.894531 0 L 33.597656 0 C 34.609375 0 34.996094 -0.65625 34.339844 -1.460938 L 23.054688 -16.144531 L 33.804688 -30.082031 C 34.429688 -30.886719 34.074219 -31.542969 33.058594 -31.542969 L 26.714844 -31.542969 C 26.121094 -31.542969 25.613281 -31.304688 25.257812 -30.765625 L 18.109375 -21.027344 L 11.019531 -30.765625 C 10.632812 -31.304688 10.15625 -31.542969 9.5625 -31.542969 L 3.15625 -31.542969 C 2.175781 -31.542969 1.785156 -30.914062 2.441406 -30.082031 L 13.195312 -16.144531 L 1.9375 -1.460938 C 1.28125 -0.65625 1.636719 0 2.652344 0 Z M 9.324219 0" transform="translate(281.464973, 323.850068)"/></g></g></g></svg>